<svg xmlns="http://www.w3.org/2000/svg" viewBox="0 0 2000 2000">
  <g style="opacity: 0.23">
    <path fill="none" stroke="white" stroke-width="20" stroke-miterlimit="10" d="M1583.57,903.18c-2.69,161.02-60.82,300.97-177.38,414.65-116.83,113.95-258.38,170.52-421.77,166.32-157.27-4.05-291.94-64.3-401.42-176.91-113.76-117.01-170.24-258.66-165.93-422.14,4.16-157.36,64.43-292.1,177.09-401.55,117.19-113.85,258.88-170.21,422.56-165.65,156.74,4.37,290.67,64.65,399.9,176.58,109.9,112.61,164.71,249.09,166.94,408.7ZM1032.46,1183.87c1.05,0,1.75.04,2.45,0,18.08-1.15,36.02-3.46,53.86-6.65,26.01-4.64,51.43-11.57,76.37-20.24,3.96-1.38,3.84-1.69,3.88-6.04.14-13.18.02-26.39.84-39.54,1.86-29.8,8.95-58.59,18.07-86.89,9.4-29.17,20.96-57.51,33.53-85.42,18.43-40.94,37.21-81.72,55.68-122.64,16.66-36.93,31.74-74.51,44.86-112.87,14.19-41.49,25.8-83.68,33.66-126.84,3.02-16.55,5.3-33.24,7.94-49.86.5-3.15-.4-5.55-2.93-7.68-4.62-3.9-8.9-8.19-13.45-12.16-37.53-32.7-78.61-59.98-123.72-81.16-40.51-19.01-82.68-32.91-126.7-40.84-18.15-3.27-36.54-5.16-54.85-7.53-3.14-.41-6.39-.06-9.49-.06v806.43ZM967.99,377.22c-1.82,0-3.27-.11-4.7.02-6.91.63-13.82,1.32-20.73,1.99-21.52,2.1-42.75,5.95-63.78,10.94-43.53,10.35-85.07,26-124.6,47-35.45,18.83-68.17,41.56-98.69,67.61-5.89,5.02-7.86,9.66-6.83,17.63,3.38,26.16,7.64,52.15,13.13,77.93,10.92,51.21,26.97,100.88,45.88,149.64,15.19,39.15,32.76,77.26,50.07,115.5,16.24,35.89,32.42,71.82,48.09,107.97,10.87,25.07,19.85,50.87,26.67,77.38,8.3,32.27,13.12,64.96,11.39,98.4-.18,3.41-.31,6.83-.48,10.48,40.48,13.61,81.8,21.57,124.57,24.35V377.22ZM591.45,571.91c-1.41,1.5-2.47,2.44-3.31,3.55-5.64,7.45-11.44,14.81-16.82,22.45-26.52,37.68-47.84,78.11-63.86,121.35-1.86,5.03-2.34,9.84-1.5,15,4.03,24.78,9.02,49.34,15.48,73.61,7.8,29.26,17.16,58,28.35,86.12,12.16,30.53,26.62,59.96,43.45,88.22,25.27,42.44,55.1,81.24,90.79,115.5,13.11,12.58,26.72,24.54,41.08,35.65.58.45,1.14.93,1.65,1.45.37.38.65.85.97,1.27-40.98-13.71-77.75-34.63-111.51-60.96-66.13-51.57-111.77-117.8-139.91-196.63-3.79,86.01,12.4,167.94,48.92,245.77,36.67,78.15,89.66,143.06,158.31,195.53,1.84-1.52,3.35-2.56,4.62-3.86,10.76-11,21.85-21.7,32.13-33.14,18.73-20.84,34.18-43.94,45.66-69.62,9.15-20.46,14.57-41.88,15.86-64.18,1.23-21.32-1-42.45-5.73-63.29-6.59-29.04-16.12-57.15-27.71-84.51-10.93-25.81-22.51-51.36-33.96-76.95-17.3-38.64-35.16-77.03-52-115.86-17.58-40.55-32.68-82.06-45.13-124.5-8.67-29.55-16.16-59.39-21.55-89.73-1.28-7.19-2.76-14.35-4.29-22.23ZM1323.17,1314.45c66.61-52.6,117.63-117.08,153.19-193.8,42.85-92.44,51.37-186.74,46.93-243.42-14.13,40.44-32.55,77.37-56.73,111.32-24.2,33.99-52.88,63.65-86.06,88.94-33.09,25.22-68.88,45.43-108.33,58.89.15-.75.47-1.2.87-1.54,1.4-1.18,2.81-2.35,4.25-3.48,25.18-19.72,48.22-41.71,69.23-65.8,17.97-20.61,34.29-42.49,49.07-65.53,15.67-24.43,29.54-49.84,41.65-76.2,15.71-34.21,28.17-69.62,38.33-105.85,7.87-28.06,14.18-56.45,18.4-85.32.67-4.61.14-8.61-1.44-12.8-8.39-22.33-17.97-44.11-29.18-65.19-12.25-23.04-26.12-45.04-41.56-66.06-.78-1.07-1.82-1.95-3.16-3.37-.47,1.72-.82,2.73-1.01,3.77-5.07,26.83-10.94,53.46-18.31,79.76-11.7,41.69-25.96,82.48-42.28,122.58-17.55,43.14-37.26,85.3-56.58,127.65-12.7,27.84-25.41,55.69-37.18,83.93-14.32,34.39-26.27,69.58-31.24,106.77-2.39,17.9-2.61,35.8-.11,53.67,4.53,32.45,17.85,61.4,35.88,88.38,14.44,21.61,32.06,40.51,50.48,58.7,1.4,1.39,3.06,2.51,4.89,3.99ZM1032.75,1247.79c-1.38,5.6-1.03,172.69.4,177.02,41.55-2.79,82.18-10.46,122.14-22.46,42.9-12.88,103.19-42.02,112.97-51.62-19.08-18.59-35.98-39.03-51.1-60.94-15.24-22.1-27.33-45.82-35.97-71.59-24.36,8.5-48.72,14.97-73.5,19.92-24.77,4.95-49.79,7.9-74.93,9.67ZM738.84,1356.3c66.09,37.73,136.47,59.82,211.52,67.24,5.68.56,11.42,1.33,17.1.96,1.25-11.81.9-172.45-.4-176.78-46.63-2.77-92.32-11.37-137.25-25.66-18.58,52.94-52.05,95.21-90.96,134.24Z"/>
  </g>
  <circle cx="999.86" cy="901.36" r="583.36" fill="none" stroke="white" stroke-width="21" stroke-miterlimit="10"/>
  <g>
    <path fill="white" d="M754.56,537.38c.36-.07.7.2.7.57-.09,90.72-.04,180.83,0,271.68,0,5.56,1.71,9.1,6.95,11.36,9.39,4.06,27.58,12.07,36.83,16.43v-185.54c36.27-17.25,75.26-36.68,111.74-53.81.39-.18.83.1.83.53,0,108.93,0,216.76,0,325.66,0,.02,0,.03,0,.05-.69,7.09,3.98,6.27,9.59,7.63.01,0,.02,0,.03,0,50.15,8.52,100.39,8.78,150.64,1.14,16.07-2.44,12.07-.46,12.77-15.05.09-106.37-.05-213.76,0-320.15,0-.42.43-.7.82-.53,36.86,16.17,71.34,35.45,107.59,52.73,4.07,2.01,4.81,4.83,4.81,8.79-.64,39.32.04,76.6.05,115.24,0,.39-.38.67-.75.57-21.05-6.07-40.24-16.32-61.21-22.12-.33-.09-.67.12-.73.46-1.93,11.27-1.91,104.27.01,114.99.07.37.46.57.8.42,32.56-14.16,64.17-30.47,96.6-44.96,6.11-2.79,7.66-5.25,7.66-11.76v-263.36c0-8.05,1.18-7.91,8.92-6.84,13.32,1.71,26.16,4.36,39.52,5.91.58.07.89-.67.43-1.04-11.52-9.2-80.74-53.34-90.45-57.5-.38-.16-.8.12-.8.54,0,40.34-.01,80.81,0,121.27,0,.42-.44.71-.82.53-54.04-24.45-107.03-49.94-161.67-72.95-.38-.16-.81.12-.81.54-.1,118.57.04,234.28,0,352.13,0,7.74-.3,8.34-7.98,9.02-19.95,1.48-39.58,2.09-59.36-.66-1.35-.19-2.7-.39-4.05-.61-2.02-.33-3.65-2.23-3.65-4.27,0-117.97,0-237.95,0-356.48l-160.52,72.96v-123.69c-30.36,19.36-59.97,38.18-89.27,56.86.57,1.4.44,1.08,1.01,2.49,14.19-2.93,28.91-6.12,43.78-9.17Z"/>
    <path fill="white" d="M799.04,1157.77v-149.17c0-2.22-1.39-4.2-3.48-4.94-12.07-4.32-25.52-9.56-37.76-13.86-1.24-.44-2.54.48-2.54,1.8,0,7.39-.02,14.47,0,20.94.18,57.02.07,113.92,0,170.94,0,6.71,5.06,10.82,10.25,14.59,14.24,10.36,28.39,20.84,42.53,31.34,1.72,1.28,4.7,3.69,6.42,4.97l.43-57.07c-3.52-2.5-7.78-6.32-11.3-8.82-3.79-2.69-4.56-6.11-4.56-10.72Z"/>
    <path fill="white" d="M1236.74,948.21c-17.31-11.93-32.89-25.95-48.05-40.44-3.03-2.89-5.93-3.55-9.88-2.06-10.48,3.95-20.41,7.8-30.94,11.63-1.29.47-3.09,1.15-4.7,2.09l42.64,43.41c1.43,1.39,3.77,2.18,5.82,2.54,5.05.88,5.5.92,5.95,5.41.17,1.66.26,3.33.27,4.99.17,19.21.05,39.04.05,58.3v120.91c0,4.53.37,8-1.82,11.06-.17.24-.15.56.05.76l33.46,33.46c.2.2.52.23.75.06.3-.22.61-.44.91-.66,6.24-4.49,9.06-9.22,9.03-16.88-.18-51.17.08-102.32,0-153.57-.04-24.13.01-48.08.16-72.2.02-3.58-.36-6.49-3.71-8.8Z"/>
    <path fill="white" d="M1175.04,1189.2c-2.22-2.22-5.74-2.47-8.25-.58-6.35,4.79-12.71,9.57-19.15,14.23-17.56,12.72-35.34,25.14-53.09,37.59l-.07.05c-4.15,2.9-9.85-.07-9.85-5.13v-1.85c0-25.02.03-110.07,0-165.38,0-1.85.04-4.5.04-6.93,0-2.31-1.86-4.18-4.17-4.18h-41.74c-2.29,0-4.17,1.88-4.17,4.17v20.58c-25.02.09-50.03.19-75.05.24v-20.7c0-2.29-1.84-4.15-4.13-4.17-11.04-.11-27.43-.12-39.65-.12-2.3,0-4.17,1.87-4.17,4.17v.69c0,50.03,0,100.76,0,150.79v24.32c0,1.6,0,1.63,0,5.56,0,.37,0,.59,0,1.01,0,.23-.13.44-.34.54l-50.49,23.35c-.4.18-.46.73-.11.99,2.52,1.88,8.4,6.33,9.94,7.46,27.83,20.49,11.12,8.34,40.3,29.19,2.07,1.48,45.43,31.4,48.64,33.35v-248.94c.3,0,.59,0,.89,0,24.72.13,49.44.26,74.16.42v249.22c48.36-35.07,114.24-80.21,164.06-115.96,3.16-2.27,3.53-6.83.78-9.58l-24.4-24.4Z"/>
    <path fill="white" d="M1132.81,984.27c3.48-1.04,6.94-2.18,11.59-3.66.4-.13.54-.62.27-.94-2.15-2.51-3.58-4.16-5-5.82-10.39-12.27-21.05-24.32-31.03-36.91-3.7-4.67-6.92-6.12-12.88-4.72-30.96,7.28-62.48,10.28-94.24,10.26-33.48-.02-66.58-3.67-99.32-11.01-55.43-12.43-107.43-33.28-155.95-62.71-29.67-17.99-57.28-38.79-82.6-62.59-2.79-2.63-5.84-4.99-8.78-7.45-.22-.18-.53-.18-.75,0l-.59.5c-.22.18-.27.5-.12.75,1.09,1.81,2.08,3.69,3.35,5.36,5.02,6.59,10.11,13.13,15.24,19.64,23.92,30.28,49.44,59.03,79.42,83.56,72.61,59.39,155.24,92.5,249.47,94.61,44.93,1.01,88.89-6.01,131.92-18.86Z"/>
    <path fill="white" d="M1349.43,798.77l-.73-.68c-.21-.19-.52-.21-.75-.04-1.55,1.19-3.16,2.32-4.61,3.62-44.21,39.52-92.28,73.26-146.49,97.82-1.86.84-3.52,2.14-5.68,3.57-.32.21-.35.66-.08.92,5.96,5.53,10.97,10.54,16.4,15.06,7.38,6.16,8.41,6.24,16.7.86,8.99-5.83,18-11.69,26.44-18.28,28.9-22.55,55.27-47.79,78.45-76.25,6.93-8.51,13.62-17.21,20.42-25.83.19-.24.16-.58-.06-.78Z"/>
  </g>
</svg>
